<?xml version="1.0" encoding="utf-8"?>
<!-- Generator: Adobe Illustrator 27.1.1, SVG Export Plug-In . SVG Version: 6.00 Build 0)  -->
<svg version="1.1" id="Layer_2_00000116957503126531957450000015364297822901405828_"
	 xmlns="http://www.w3.org/2000/svg" xmlns:xlink="http://www.w3.org/1999/xlink" x="0px" y="0px" viewBox="0 0 52.6 27.8"
	 style="enable-background:new 0 0 52.6 27.8;" xml:space="preserve">
<style type="text/css">
	.st0{fill:url(#SVGID_1_);}
	.st1{fill:url(#SVGID_00000135678678965332338740000010657909820572375977_);}
	.st2{fill:url(#SVGID_00000018207708607918738780000015646902981755103885_);}
	.st3{fill:url(#SVGID_00000092440786516448020880000017227863455866731703_);}
	.st4{fill:url(#SVGID_00000087395223494967218320000011559507260094879922_);}
</style>
<g id="Layer_1-2">
	<g>
		
			<linearGradient id="SVGID_1_" gradientUnits="userSpaceOnUse" x1="-3.210340e-03" y1="15.4784" x2="15.17" y2="15.4784" gradientTransform="matrix(1 0 0 -1 0 30)">
			<stop  offset="0" style="stop-color:#00E5FF"/>
			<stop  offset="0.12" style="stop-color:#29B8FE"/>
			<stop  offset="0.29" style="stop-color:#5E81FD"/>
			<stop  offset="0.46" style="stop-color:#8952FD"/>
			<stop  offset="0.62" style="stop-color:#AB2EFC"/>
			<stop  offset="0.76" style="stop-color:#C415FC"/>
			<stop  offset="0.9" style="stop-color:#D205FC"/>
			<stop  offset="1" style="stop-color:#D800FC"/>
		</linearGradient>
		<path class="st0" d="M0.8,8.4c-0.1,0.2-1.2,4.7-0.6,7.9s2.8,5.9,5.9,7.1s6.3,0.4,6.3,0.4s-6.1-3.2-5.6-9.2c0.6-7,8.4-6.5,8.4-6.5
			s-3.7-3.6-7.5-3S1.2,7.4,0.8,8.4z"/>
		
			<linearGradient id="SVGID_00000059290908905047412850000007704833489609363130_" gradientUnits="userSpaceOnUse" x1="37.44" y1="15.4784" x2="52.6132" y2="15.4784" gradientTransform="matrix(1 0 0 -1 0 30)">
			<stop  offset="0" style="stop-color:#00E5FF"/>
			<stop  offset="0.12" style="stop-color:#29B8FE"/>
			<stop  offset="0.29" style="stop-color:#5E81FD"/>
			<stop  offset="0.46" style="stop-color:#8952FD"/>
			<stop  offset="0.62" style="stop-color:#AB2EFC"/>
			<stop  offset="0.76" style="stop-color:#C415FC"/>
			<stop  offset="0.9" style="stop-color:#D205FC"/>
			<stop  offset="1" style="stop-color:#D800FC"/>
		</linearGradient>
		<path style="fill:url(#SVGID_00000059290908905047412850000007704833489609363130_);" d="M51.8,8.4c0.1,0.2,1.2,4.7,0.6,7.9
			s-2.8,5.9-5.9,7.1s-6.3,0.4-6.3,0.4s6.1-3.2,5.6-9.2c-0.6-7-8.4-6.5-8.4-6.5s3.7-3.6,7.5-3S51.4,7.4,51.8,8.4z"/>
		
			<linearGradient id="SVGID_00000121271175666345542910000017591396548096442272_" gradientUnits="userSpaceOnUse" x1="5.000000e-02" y1="23.5653" x2="22.57" y2="23.5653" gradientTransform="matrix(1 0 0 -1 0 30)">
			<stop  offset="0" style="stop-color:#00E5FF"/>
			<stop  offset="0.12" style="stop-color:#29B8FE"/>
			<stop  offset="0.29" style="stop-color:#5E81FD"/>
			<stop  offset="0.46" style="stop-color:#8952FD"/>
			<stop  offset="0.62" style="stop-color:#AB2EFC"/>
			<stop  offset="0.76" style="stop-color:#C415FC"/>
			<stop  offset="0.9" style="stop-color:#D205FC"/>
			<stop  offset="1" style="stop-color:#D800FC"/>
		</linearGradient>
		<path style="fill:url(#SVGID_00000121271175666345542910000017591396548096442272_);" d="M22.6,5.5c-0.1-0.1-0.2-0.2-0.4-0.3
			c-0.9-0.7-2.5-2-4.4-3.1C13.5-0.5,8.6-1,4.4,2.3c-4.8,3.8-4.3,9-4.4,10.6c0-1,1.8-2.9,2.4-3.7c0.8-0.9,1.6-1.7,2.6-2.3
			c1.7-1,3.5-1.2,5.4-0.7c2.8,0.7,5.3,2.3,7.1,3.9"/>
		
			<linearGradient id="SVGID_00000135683039492861942360000010457944148832671679_" gradientUnits="userSpaceOnUse" x1="27.35" y1="9.6603" x2="52.6" y2="9.6603" gradientTransform="matrix(1 0 0 -1 0 30)">
			<stop  offset="0" style="stop-color:#00E5FF"/>
			<stop  offset="0.12" style="stop-color:#29B8FE"/>
			<stop  offset="0.29" style="stop-color:#5E81FD"/>
			<stop  offset="0.46" style="stop-color:#8952FD"/>
			<stop  offset="0.62" style="stop-color:#AB2EFC"/>
			<stop  offset="0.76" style="stop-color:#C415FC"/>
			<stop  offset="0.9" style="stop-color:#D205FC"/>
			<stop  offset="1" style="stop-color:#D800FC"/>
		</linearGradient>
		<path style="fill:url(#SVGID_00000135683039492861942360000010457944148832671679_);" d="M48.4,20.2c-1.8,1.4-4.1,1.9-6.3,1.4
			c-4.2-1.1-7.5-5.1-9.9-8.7c-0.2,0.2-1.5,1.4-1.7,1.6c-1.4,1.4-1.8,1.8-3.2,3.2c2,3,4.3,6.1,7.5,8c2.5,1.5,5.4,2.5,8.3,2.1
			c4.1-0.6,7.9-3.8,9-8.1c0.4-1.5,0.5-3.1,0.5-4.7C51.6,17.2,49.4,19.4,48.4,20.2L48.4,20.2z"/>
		
			<linearGradient id="SVGID_00000000910036854923931360000004436590136308848570_" gradientUnits="userSpaceOnUse" x1="-47.263" y1="2145.6323" x2="5.4217" y2="2145.6323" gradientTransform="matrix(0.999 -4.431684e-02 4.431684e-02 0.999 -47.9425 -2130.5322)">
			<stop  offset="0" style="stop-color:#00E5FF"/>
			<stop  offset="0.12" style="stop-color:#29B8FE"/>
			<stop  offset="0.29" style="stop-color:#5E81FD"/>
			<stop  offset="0.46" style="stop-color:#8952FD"/>
			<stop  offset="0.62" style="stop-color:#AB2EFC"/>
			<stop  offset="0.76" style="stop-color:#C415FC"/>
			<stop  offset="0.9" style="stop-color:#D205FC"/>
			<stop  offset="1" style="stop-color:#D800FC"/>
		</linearGradient>
		<path style="fill:url(#SVGID_00000000910036854923931360000004436590136308848570_);" d="M52.6,12.9c0-1-1.8-2.9-2.4-3.7
			c-0.8-0.9-1.6-1.7-2.6-2.3c-1.7-1-3.5-1.2-5.4-0.7c-4.5,1.1-8.3,5.1-11.6,8.3c-4,3.9-7.9,8.4-12.7,11.2c-2.5,1.5-5.4,2.5-8.3,2.1
			c-4.1-0.6-7.9-3.8-9-8.1c-0.4-1.5-0.4-3.1-0.4-4.7c1,2.3,3.2,4.5,4.2,5.3c1.8,1.4,4.1,1.9,6.3,1.4c4.6-1.2,8.5-5.3,11.9-8.6
			c2.2-2.1,4.2-4.1,6.3-6.1c1.9-1.8,3.9-3.5,6.2-4.8c4.3-2.5,9.2-3,13.4,0.2C53,6,52.5,11.3,52.6,12.9L52.6,12.9z"/>
	</g>
</g>
</svg>
